<svg xmlns="http://www.w3.org/2000/svg" version="1.1" xmlns:xlink="http://www.w3.org/1999/xlink" xmlns:svgjs="http://svgjs.com/svgjs" width="1840" height="560" preserveAspectRatio="none" viewBox="0 0 1840 560"><g mask="url(&quot;#SvgjsMask4539&quot;)" fill="none"><rect width="1840" height="560" x="0" y="0" fill="rgba(100, 100, 100, 0.13)"></rect><path d="M473.62 217.2L617.39 300.2L617.39 466.2L473.62 549.2L329.86 466.2L329.86 300.2zM617.39 -31.8L761.15 51.2L761.15 217.2L617.39 300.2L473.62 217.2L473.62 51.2zM617.39 466.2L761.15 549.2L761.15 715.2L617.39 798.2L473.62 715.2L473.62 549.2zM904.92 -31.8L1048.68 51.2L1048.68 217.2L904.92 300.2L761.15 217.2L761.15 51.2zM1911.27 217.2L2055.03 300.2L2055.03 466.2L1911.27 549.2L1767.5 466.2L1767.5 300.2z" stroke="rgba(144, 203, 138, 1)" stroke-width="2"></path><path d="M235.59 195.39L357.71 265.89L357.71 406.89L235.59 477.39L113.48 406.89L113.48 265.89zM113.48 406.89L235.59 477.39L235.59 618.39L113.48 688.89L-8.63 618.39L-8.63 477.39zM479.82 618.39L601.93 688.89L601.93 829.89L479.82 900.39L357.71 829.89L357.71 688.89zM724.05 195.39L846.16 265.89L846.16 406.89L724.05 477.39L601.93 406.89L601.93 265.89zM601.93 406.89L724.05 477.39L724.05 618.39L601.93 688.89L479.82 618.39L479.82 477.39zM968.27 618.39L1090.38 688.89L1090.38 829.89L968.27 900.39L846.16 829.89L846.16 688.89zM1090.38 -16.11L1212.5 54.39L1212.5 195.39L1090.38 265.89L968.27 195.39L968.27 54.39zM1212.5 195.39L1334.61 265.89L1334.61 406.89L1212.5 477.39L1090.38 406.89L1090.38 265.89zM1334.61 -16.11L1456.72 54.39L1456.72 195.39L1334.61 265.89L1212.5 195.39L1212.5 54.39zM1456.72 195.39L1578.84 265.89L1578.84 406.89L1456.72 477.39L1334.61 406.89L1334.61 265.89zM1700.95 195.39L1823.06 265.89L1823.06 406.89L1700.95 477.39L1578.84 406.89L1578.84 265.89zM1700.95 618.39L1823.06 688.89L1823.06 829.89L1700.95 900.39L1578.84 829.89L1578.84 688.89zM1945.18 195.39L2067.29 265.89L2067.29 406.89L1945.18 477.39L1823.06 406.89L1823.06 265.89zM1823.06 406.89L1945.18 477.39L1945.18 618.39L1823.06 688.89L1700.95 618.39L1700.95 477.39zM1945.18 618.39L2067.29 688.89L2067.29 829.89L1945.18 900.39L1823.06 829.89L1823.06 688.89z" stroke="rgba(190, 205, 233, 1)" stroke-width="2"></path><path d="M221.49 195.39 a14.1 14.1 0 1 0 28.2 0 a14.1 14.1 0 1 0 -28.2 0zM343.61 265.89 a14.1 14.1 0 1 0 28.2 0 a14.1 14.1 0 1 0 -28.2 0zM343.61 406.89 a14.1 14.1 0 1 0 28.2 0 a14.1 14.1 0 1 0 -28.2 0zM221.49 477.39 a14.1 14.1 0 1 0 28.2 0 a14.1 14.1 0 1 0 -28.2 0zM99.38 406.89 a14.1 14.1 0 1 0 28.2 0 a14.1 14.1 0 1 0 -28.2 0zM99.38 265.89 a14.1 14.1 0 1 0 28.2 0 a14.1 14.1 0 1 0 -28.2 0zM221.49 618.39 a14.1 14.1 0 1 0 28.2 0 a14.1 14.1 0 1 0 -28.2 0zM99.38 688.89 a14.1 14.1 0 1 0 28.2 0 a14.1 14.1 0 1 0 -28.2 0zM-22.73 618.39 a14.1 14.1 0 1 0 28.2 0 a14.1 14.1 0 1 0 -28.2 0zM-22.73 477.39 a14.1 14.1 0 1 0 28.2 0 a14.1 14.1 0 1 0 -28.2 0zM465.72 618.39 a14.1 14.1 0 1 0 28.2 0 a14.1 14.1 0 1 0 -28.2 0zM587.83 688.89 a14.1 14.1 0 1 0 28.2 0 a14.1 14.1 0 1 0 -28.2 0zM587.83 829.89 a14.1 14.1 0 1 0 28.2 0 a14.1 14.1 0 1 0 -28.2 0zM465.72 900.39 a14.1 14.1 0 1 0 28.2 0 a14.1 14.1 0 1 0 -28.2 0zM343.61 829.89 a14.1 14.1 0 1 0 28.2 0 a14.1 14.1 0 1 0 -28.2 0zM343.61 688.89 a14.1 14.1 0 1 0 28.2 0 a14.1 14.1 0 1 0 -28.2 0zM709.95 195.39 a14.1 14.1 0 1 0 28.2 0 a14.1 14.1 0 1 0 -28.2 0zM832.06 265.89 a14.1 14.1 0 1 0 28.2 0 a14.1 14.1 0 1 0 -28.2 0zM832.06 406.89 a14.1 14.1 0 1 0 28.2 0 a14.1 14.1 0 1 0 -28.2 0zM709.95 477.39 a14.1 14.1 0 1 0 28.2 0 a14.1 14.1 0 1 0 -28.2 0zM587.83 406.89 a14.1 14.1 0 1 0 28.2 0 a14.1 14.1 0 1 0 -28.2 0zM587.83 265.89 a14.1 14.1 0 1 0 28.2 0 a14.1 14.1 0 1 0 -28.2 0zM709.95 618.39 a14.1 14.1 0 1 0 28.2 0 a14.1 14.1 0 1 0 -28.2 0zM465.72 477.39 a14.1 14.1 0 1 0 28.2 0 a14.1 14.1 0 1 0 -28.2 0zM954.17 618.39 a14.1 14.1 0 1 0 28.2 0 a14.1 14.1 0 1 0 -28.2 0zM1076.28 688.89 a14.1 14.1 0 1 0 28.2 0 a14.1 14.1 0 1 0 -28.2 0zM1076.28 829.89 a14.1 14.1 0 1 0 28.2 0 a14.1 14.1 0 1 0 -28.2 0zM954.17 900.39 a14.1 14.1 0 1 0 28.2 0 a14.1 14.1 0 1 0 -28.2 0zM832.06 829.89 a14.1 14.1 0 1 0 28.2 0 a14.1 14.1 0 1 0 -28.2 0zM832.06 688.89 a14.1 14.1 0 1 0 28.2 0 a14.1 14.1 0 1 0 -28.2 0zM1076.28 -16.11 a14.1 14.1 0 1 0 28.2 0 a14.1 14.1 0 1 0 -28.2 0zM1198.4 54.39 a14.1 14.1 0 1 0 28.2 0 a14.1 14.1 0 1 0 -28.2 0zM1198.4 195.39 a14.1 14.1 0 1 0 28.2 0 a14.1 14.1 0 1 0 -28.2 0zM1076.28 265.89 a14.1 14.1 0 1 0 28.2 0 a14.1 14.1 0 1 0 -28.2 0zM954.17 195.39 a14.1 14.1 0 1 0 28.2 0 a14.1 14.1 0 1 0 -28.2 0zM954.17 54.39 a14.1 14.1 0 1 0 28.2 0 a14.1 14.1 0 1 0 -28.2 0zM1320.51 265.89 a14.1 14.1 0 1 0 28.2 0 a14.1 14.1 0 1 0 -28.2 0zM1320.51 406.89 a14.1 14.1 0 1 0 28.2 0 a14.1 14.1 0 1 0 -28.2 0zM1198.4 477.39 a14.1 14.1 0 1 0 28.2 0 a14.1 14.1 0 1 0 -28.2 0zM1076.28 406.89 a14.1 14.1 0 1 0 28.2 0 a14.1 14.1 0 1 0 -28.2 0zM1320.51 -16.11 a14.1 14.1 0 1 0 28.2 0 a14.1 14.1 0 1 0 -28.2 0zM1442.62 54.39 a14.1 14.1 0 1 0 28.2 0 a14.1 14.1 0 1 0 -28.2 0zM1442.62 195.39 a14.1 14.1 0 1 0 28.2 0 a14.1 14.1 0 1 0 -28.2 0zM1564.74 265.89 a14.1 14.1 0 1 0 28.2 0 a14.1 14.1 0 1 0 -28.2 0zM1564.74 406.89 a14.1 14.1 0 1 0 28.2 0 a14.1 14.1 0 1 0 -28.2 0zM1442.62 477.39 a14.1 14.1 0 1 0 28.2 0 a14.1 14.1 0 1 0 -28.2 0zM1686.85 195.39 a14.1 14.1 0 1 0 28.2 0 a14.1 14.1 0 1 0 -28.2 0zM1808.96 265.89 a14.1 14.1 0 1 0 28.2 0 a14.1 14.1 0 1 0 -28.2 0zM1808.96 406.89 a14.1 14.1 0 1 0 28.2 0 a14.1 14.1 0 1 0 -28.2 0zM1686.85 477.39 a14.1 14.1 0 1 0 28.2 0 a14.1 14.1 0 1 0 -28.2 0zM1686.85 618.39 a14.1 14.1 0 1 0 28.2 0 a14.1 14.1 0 1 0 -28.2 0zM1808.96 688.89 a14.1 14.1 0 1 0 28.2 0 a14.1 14.1 0 1 0 -28.2 0zM1808.96 829.89 a14.1 14.1 0 1 0 28.2 0 a14.1 14.1 0 1 0 -28.2 0zM1686.85 900.39 a14.1 14.1 0 1 0 28.2 0 a14.1 14.1 0 1 0 -28.2 0zM1564.74 829.89 a14.1 14.1 0 1 0 28.2 0 a14.1 14.1 0 1 0 -28.2 0zM1564.74 688.89 a14.1 14.1 0 1 0 28.2 0 a14.1 14.1 0 1 0 -28.2 0zM1931.08 195.39 a14.1 14.1 0 1 0 28.2 0 a14.1 14.1 0 1 0 -28.2 0zM2053.19 265.89 a14.1 14.1 0 1 0 28.2 0 a14.1 14.1 0 1 0 -28.2 0zM2053.19 406.89 a14.1 14.1 0 1 0 28.2 0 a14.1 14.1 0 1 0 -28.2 0zM1931.08 477.39 a14.1 14.1 0 1 0 28.2 0 a14.1 14.1 0 1 0 -28.2 0zM1931.08 618.39 a14.1 14.1 0 1 0 28.2 0 a14.1 14.1 0 1 0 -28.2 0zM2053.19 688.89 a14.1 14.1 0 1 0 28.2 0 a14.1 14.1 0 1 0 -28.2 0zM2053.19 829.89 a14.1 14.1 0 1 0 28.2 0 a14.1 14.1 0 1 0 -28.2 0zM1931.08 900.39 a14.1 14.1 0 1 0 28.2 0 a14.1 14.1 0 1 0 -28.2 0z" fill="rgba(190, 205, 233, 1)"></path><path d="M123.77 -39.17L232.89 23.83L232.89 149.83L123.77 212.83L14.65 149.83L14.65 23.83zM451.14 149.83L560.26 212.83L560.26 338.83L451.14 401.83L342.01 338.83L342.01 212.83zM778.5 338.83L887.63 401.83L887.63 527.83L778.5 590.83L669.38 527.83L669.38 401.83z" stroke="rgba(253, 153, 0, 0.49)" stroke-width="2"></path></g><defs><mask id="SvgjsMask4539"><rect width="1840" height="560" fill="#ffffff"></rect></mask></defs></svg>